# xmcd
#
# Track frame offsets: 
#        150
#        19962
#        36329
#        51036
#        70867
#        89856
#        112128
#        128237
#        145792
#        168340
#        184316
#        187245
#
# Disc length: 2817 seconds
#
# Revision: 0
# Processed by: cddbd v1.5.2PL0 Copyright (c) Steve Scherf et al.
# Submitted via: ExactAudioCopyFreeDBPlugin 1.0
#
DISCID=ba0aff0c
DTITLE=Christian Lee Hutson - The Hell With It
DYEAR=2013
DGENRE=County and Folk
TTITLE0=Texico
TTITLE1=All The Time
TTITLE2=Come Back To Me
TTITLE3=Shit Happens
TTITLE4=My Old Friend
TTITLE5=Days I Took The Dirt
TTITLE6=Plain Song
TTITLE7=The Hell With It
TTITLE8=You Are Released
TTITLE9=Tell Me You're Not Telling The Truth
TTITLE10=Tell Me You're Not Telling The Truth (Reprise)
TTITLE11=The Way That I Think About You
EXTD=
EXTT0=
EXTT1=
EXTT2=
EXTT3=
EXTT4=
EXTT5=
EXTT6=
EXTT7=
EXTT8=
EXTT9=
EXTT10=
EXTT11=
PLAYORDER=
